<svg width="80" height="105" viewBox="0 0 80 105" fill="none" xmlns="http://www.w3.org/2000/svg">
<path d="M0 5C0 2.23858 2.23858 0 5 0H75C77.7614 0 80 2.23858 80 5V80H0V5Z" fill="#1D1D1F"/>
<path d="M0 80H80V100C80 102.761 77.7614 105 75 105H5C2.23858 105 0 102.761 0 100V80Z" fill="#303133"/>
<path d="M25.6709 96.2414V86.4386H31.3926V87.8263H27.2979V90.506H29.1709C30.1735 90.506 30.9528 90.743 31.5088 91.217C32.0693 91.6909 32.3496 92.3631 32.3496 93.2336C32.3496 94.1633 32.0511 94.897 31.4541 95.4347C30.8617 95.9725 30.0527 96.2414 29.0273 96.2414H25.6709ZM27.2979 91.798V94.9426H28.7676C29.3646 94.9426 29.8249 94.8013 30.1484 94.5187C30.472 94.2362 30.6338 93.842 30.6338 93.3361C30.6338 92.3107 30.0208 91.798 28.7949 91.798H27.2979ZM33.5664 95.8654V94.382C34.2591 94.8149 35.1022 95.0314 36.0957 95.0314C36.9889 95.0314 37.7181 94.7694 38.2832 94.2453C38.8529 93.7166 39.1719 92.9829 39.2402 92.0441H35.1523V90.6906H39.2402C39.1309 89.7336 38.7959 88.9907 38.2354 88.4621C37.6748 87.9289 36.9456 87.6623 36.0479 87.6623C35.1364 87.6623 34.3092 87.856 33.5664 88.2433V86.6847C34.2819 86.4113 35.141 86.2746 36.1436 86.2746C37.5837 86.2746 38.7526 86.744 39.6504 87.6828C40.5482 88.617 40.9971 89.868 40.9971 91.4357C40.9971 92.9032 40.5641 94.0995 39.6982 95.0246C38.8369 95.9452 37.6999 96.4054 36.2871 96.4054C35.2116 96.4054 34.3047 96.2254 33.5664 95.8654ZM53.3291 96.2414H51.7158V89.8976C51.7158 89.3781 51.7477 88.7424 51.8115 87.9904H51.7842C51.6839 88.4188 51.5951 88.7264 51.5176 88.9133L48.5918 96.2414H47.4707L44.5381 88.9679C44.4561 88.7537 44.3695 88.4279 44.2783 87.9904H44.251C44.2874 88.3823 44.3057 89.0226 44.3057 89.9113V96.2414H42.8018V86.4386H45.0918L47.6689 92.967C47.8649 93.4683 47.9925 93.842 48.0518 94.0881H48.0859C48.2546 93.5731 48.3913 93.1903 48.4961 92.9396L51.1211 86.4386H53.3291V96.2414Z" fill="#E8E8E8"/>
<g clip-path="url(#clip0_2_43)">
<path d="M15 25.3842H26.6877V28.8218H15V25.3842ZM15 19H26.6877V22.4376H15V19ZM35.9695 31.7192H15V35.1567H35.1837C37.3935 35.1567 42.5497 35.2058 44.4651 38.2996V36.3845C43.532 33.3396 40.782 31.7192 35.9693 31.7192H35.9695ZM36.0183 38.1032H15V41.5407H35.1837C40.0945 41.5407 43.1883 41.7372 44.4651 42.4248V40.9024C43.4828 38.4961 39.3578 38.1032 36.0185 38.1032H36.0183ZM35.9695 54.3089H15V50.8714H35.1837C37.3935 50.8714 42.5497 50.8223 44.4651 47.7285V49.6436C43.532 52.6885 40.782 54.3089 35.9693 54.3089H35.9695ZM36.0183 47.9249H15V44.4874H35.1837C40.0945 44.4874 43.1883 44.2909 44.4651 43.6033V45.1257C43.4828 47.532 39.3578 47.9249 36.0185 47.9249H36.0183ZM49.5723 60.2512H64.9925V58.1394H50.0142C48.6883 58.1394 45.5456 58.0904 44.4161 56.2733V57.452C44.9562 59.2689 46.6259 60.2512 49.5723 60.2512V60.2512ZM49.5233 56.3715H64.9434V54.2599H50.0142C47.0186 54.2599 45.1525 54.1617 44.4159 53.7198V54.6528C45.005 56.126 47.5095 56.3715 49.5231 56.3715H49.5233Z" fill="white"/>
</g>
<defs>
<clipPath id="clip0_2_43">
<rect width="50" height="41.26" fill="white" transform="translate(15 19)"/>
</clipPath>
</defs>
</svg>
