<svg width="80" height="105" viewBox="0 0 80 105" fill="none" xmlns="http://www.w3.org/2000/svg">
<path d="M0 5C0 2.23858 2.23858 0 5 0H75C77.7614 0 80 2.23858 80 5V80H0V5Z" fill="#1D1D1F"/>
<path d="M0 80H80V100C80 102.761 77.7614 105 75 105H5C2.23858 105 0 102.761 0 100V80Z" fill="#303133"/>
<path d="M31.1797 95.8312C30.4414 96.214 29.5231 96.4054 28.4248 96.4054C27.0029 96.4054 25.8636 95.9565 25.0068 95.0588C24.1501 94.161 23.7217 92.9829 23.7217 91.5246C23.7217 89.9569 24.2025 88.6899 25.1641 87.7238C26.1302 86.7577 27.3493 86.2746 28.8213 86.2746C29.7692 86.2746 30.5553 86.409 31.1797 86.6779V88.2912C30.5189 87.8993 29.7897 87.7033 28.9922 87.7033C27.9303 87.7033 27.069 88.0428 26.4082 88.7218C25.752 89.4009 25.4238 90.3078 25.4238 91.4426C25.4238 92.5226 25.7314 93.384 26.3467 94.0265C26.9619 94.6646 27.7708 94.9836 28.7734 94.9836C29.6986 94.9836 30.5007 94.7648 31.1797 94.3273V95.8312ZM32.5879 95.8517V94.1769C32.7383 94.3136 32.916 94.4367 33.1211 94.5461C33.3307 94.6554 33.5518 94.7489 33.7842 94.8263C34.0166 94.8993 34.249 94.9562 34.4814 94.9972C34.7139 95.0383 34.9281 95.0588 35.124 95.0588C35.8076 95.0588 36.3158 94.9448 36.6484 94.717C36.9857 94.4891 37.1543 94.1587 37.1543 93.7258C37.1543 93.4933 37.0973 93.2928 36.9834 93.1242C36.874 92.951 36.7191 92.7938 36.5186 92.6525C36.318 92.5112 36.0811 92.3768 35.8076 92.2492C35.5387 92.117 35.2493 91.9803 34.9395 91.839C34.6068 91.6613 34.2969 91.4813 34.0098 91.299C33.7227 91.1167 33.472 90.9162 33.2578 90.6974C33.0482 90.4741 32.8818 90.2235 32.7588 89.9455C32.6403 89.6675 32.5811 89.3416 32.5811 88.9679C32.5811 88.5077 32.6836 88.1089 32.8887 87.7717C33.0983 87.4299 33.3717 87.1496 33.709 86.9308C34.0508 86.7075 34.4382 86.5435 34.8711 86.4386C35.304 86.3293 35.7461 86.2746 36.1973 86.2746C37.2227 86.2746 37.9701 86.3908 38.4395 86.6232V88.2297C37.8835 87.8286 37.168 87.6281 36.293 87.6281C36.0514 87.6281 35.8099 87.6509 35.5684 87.6965C35.3314 87.742 35.1172 87.8172 34.9258 87.922C34.7389 88.0269 34.5863 88.1613 34.4678 88.3254C34.3493 88.4894 34.29 88.6877 34.29 88.9201C34.29 89.1388 34.3356 89.328 34.4268 89.4875C34.5179 89.647 34.6501 89.7928 34.8232 89.925C35.001 90.0571 35.2152 90.187 35.4658 90.3146C35.721 90.4377 36.015 90.5721 36.3477 90.7179C36.6895 90.8957 37.0107 91.0825 37.3115 91.2785C37.6169 91.4745 37.8835 91.6909 38.1113 91.9279C38.3438 92.1649 38.526 92.4292 38.6582 92.7209C38.7949 93.008 38.8633 93.3361 38.8633 93.7052C38.8633 94.202 38.763 94.6213 38.5625 94.9631C38.362 95.3049 38.0908 95.5829 37.749 95.797C37.4118 96.0112 37.0221 96.1662 36.5801 96.2619C36.138 96.3576 35.6709 96.4054 35.1787 96.4054C35.0146 96.4054 34.8118 96.3918 34.5703 96.3644C34.3333 96.3416 34.0895 96.3052 33.8389 96.2551C33.5882 96.2095 33.3512 96.1525 33.1279 96.0842C32.9046 96.0158 32.7246 95.9383 32.5879 95.8517ZM40.2168 95.8517V94.1769C40.3672 94.3136 40.5449 94.4367 40.75 94.5461C40.9596 94.6554 41.1807 94.7489 41.4131 94.8263C41.6455 94.8993 41.8779 94.9562 42.1104 94.9972C42.3428 95.0383 42.557 95.0588 42.7529 95.0588C43.4365 95.0588 43.9447 94.9448 44.2773 94.717C44.6146 94.4891 44.7832 94.1587 44.7832 93.7258C44.7832 93.4933 44.7262 93.2928 44.6123 93.1242C44.5029 92.951 44.348 92.7938 44.1475 92.6525C43.9469 92.5112 43.71 92.3768 43.4365 92.2492C43.1676 92.117 42.8783 91.9803 42.5684 91.839C42.2357 91.6613 41.9258 91.4813 41.6387 91.299C41.3516 91.1167 41.1009 90.9162 40.8867 90.6974C40.6771 90.4741 40.5107 90.2235 40.3877 89.9455C40.2692 89.6675 40.21 89.3416 40.21 88.9679C40.21 88.5077 40.3125 88.1089 40.5176 87.7717C40.7272 87.4299 41.0007 87.1496 41.3379 86.9308C41.6797 86.7075 42.0671 86.5435 42.5 86.4386C42.9329 86.3293 43.375 86.2746 43.8262 86.2746C44.8516 86.2746 45.599 86.3908 46.0684 86.6232V88.2297C45.5124 87.8286 44.7969 87.6281 43.9219 87.6281C43.6803 87.6281 43.4388 87.6509 43.1973 87.6965C42.9603 87.742 42.7461 87.8172 42.5547 87.922C42.3678 88.0269 42.2152 88.1613 42.0967 88.3254C41.9782 88.4894 41.9189 88.6877 41.9189 88.9201C41.9189 89.1388 41.9645 89.328 42.0557 89.4875C42.1468 89.647 42.279 89.7928 42.4521 89.925C42.6299 90.0571 42.8441 90.187 43.0947 90.3146C43.3499 90.4377 43.6439 90.5721 43.9766 90.7179C44.3184 90.8957 44.6396 91.0825 44.9404 91.2785C45.2458 91.4745 45.5124 91.6909 45.7402 91.9279C45.9727 92.1649 46.1549 92.4292 46.2871 92.7209C46.4238 93.008 46.4922 93.3361 46.4922 93.7052C46.4922 94.202 46.3919 94.6213 46.1914 94.9631C45.9909 95.3049 45.7197 95.5829 45.3779 95.797C45.0407 96.0112 44.651 96.1662 44.209 96.2619C43.7669 96.3576 43.2998 96.4054 42.8076 96.4054C42.6436 96.4054 42.4408 96.3918 42.1992 96.3644C41.9622 96.3416 41.7184 96.3052 41.4678 96.2551C41.2171 96.2095 40.9801 96.1525 40.7568 96.0842C40.5335 96.0158 40.3535 95.9383 40.2168 95.8517ZM47.9277 95.8791V94.3888C48.5658 94.8947 49.2858 95.1476 50.0879 95.1476C50.7396 95.1476 51.2591 94.9995 51.6465 94.7033C52.0384 94.4071 52.2344 94.006 52.2344 93.5002C52.2344 92.3882 51.3844 91.8322 49.6846 91.8322H48.9258V90.5607H49.6504C51.1589 90.5607 51.9131 90.0366 51.9131 88.9884C51.9131 88.0223 51.3252 87.5392 50.1494 87.5392C49.4932 87.5392 48.8757 87.7739 48.2969 88.2433V86.8351C48.9622 86.4614 49.7484 86.2746 50.6553 86.2746C51.5257 86.2746 52.223 86.4933 52.7471 86.9308C53.2712 87.3683 53.5332 87.9289 53.5332 88.6125C53.5332 89.9022 52.877 90.7316 51.5645 91.1008V91.1281C52.2708 91.1965 52.8291 91.4448 53.2393 91.8732C53.6494 92.297 53.8545 92.828 53.8545 93.466C53.8545 94.3455 53.5241 95.0565 52.8633 95.5988C52.2025 96.1366 51.332 96.4054 50.252 96.4054C49.2812 96.4054 48.5065 96.23 47.9277 95.8791Z" fill="#E8E8E8"/>
<path d="M22.222 59.9539L18.2529 15.4377H61.8642L57.8917 59.9466L40.0319 64.8985L22.222 59.9539V59.9539Z" fill="#1572B6"/>
<path d="M40.0593 61.1137L54.4902 57.1127L57.8853 19.0779H40.0593V61.1137Z" fill="#33A9DC"/>
<path d="M40.0588 35.2059H47.2833L47.7829 29.6152H40.0588V24.1554H53.7495L53.6186 25.6201L52.277 40.6652H40.0588V35.2059V35.2059Z" fill="white"/>
<path d="M40.0917 49.3853L40.0676 49.3922L33.9873 47.75L33.598 43.3956H28.1181L28.8833 51.9681L40.0667 55.0726L40.0922 55.0652V49.3853H40.0917Z" fill="#EBEBEB"/>
<path d="M46.8196 40.4343L46.1618 47.7461L40.0725 49.3897V55.0701L51.2652 51.9681L51.3475 51.0456L52.2975 40.4343H46.8196V40.4343Z" fill="white"/>
<path d="M40.0779 24.1554V29.6147H26.8902L26.7804 28.3877L26.5319 25.6201L26.401 24.1554H40.0779ZM40.0588 35.2064V40.6662H34.0554L33.9461 39.4392L33.697 36.6711L33.5662 35.2064H40.0588V35.2064Z" fill="#EBEBEB"/>
</svg>
