<svg width="80" height="105" viewBox="0 0 80 105" fill="none" xmlns="http://www.w3.org/2000/svg">
<path d="M0 5C0 2.23858 2.23858 0 5 0H75C77.7614 0 80 2.23858 80 5V80H0V5Z" fill="#1D1D1F"/>
<path d="M0 80H80V100C80 102.761 77.7614 105 75 105H5C2.23858 105 0 102.761 0 100V80Z" fill="#303133"/>
<path d="M26.5732 87.8195H22.9092V90.7658H26.2861V92.1398H22.9092V96.2414H21.2822V86.4386H26.5732V87.8195ZM28.9453 87.7717C28.6855 87.7717 28.4622 87.6873 28.2754 87.5187C28.0931 87.3501 28.002 87.1359 28.002 86.8761C28.002 86.6164 28.0931 86.3999 28.2754 86.2267C28.4622 86.0536 28.6855 85.967 28.9453 85.967C29.2142 85.967 29.4421 86.0536 29.6289 86.2267C29.8158 86.3999 29.9092 86.6164 29.9092 86.8761C29.9092 87.1222 29.8158 87.3342 29.6289 87.5119C29.4421 87.6851 29.2142 87.7717 28.9453 87.7717ZM29.7314 96.2414H28.1455V89.2414H29.7314V96.2414ZM38.1807 95.6808C38.1807 98.2511 36.8887 99.5363 34.3047 99.5363C33.3932 99.5363 32.598 99.3836 31.9189 99.0783V97.6291C32.6846 98.0666 33.4115 98.2853 34.0996 98.2853C35.763 98.2853 36.5947 97.4673 36.5947 95.8312V95.0656H36.5674C36.0433 95.9588 35.2549 96.4054 34.2021 96.4054C33.3499 96.4054 32.6618 96.0955 32.1377 95.4758C31.6182 94.8514 31.3584 94.0151 31.3584 92.967C31.3584 91.7775 31.6387 90.8319 32.1992 90.1301C32.7598 89.4282 33.5299 89.0773 34.5098 89.0773C35.4349 89.0773 36.1208 89.4556 36.5674 90.2121H36.5947V89.2414H38.1807V95.6808ZM36.6084 93.0353V92.1261C36.6084 91.634 36.4443 91.2147 36.1162 90.8683C35.7926 90.5174 35.387 90.342 34.8994 90.342C34.2979 90.342 33.8262 90.5653 33.4844 91.0119C33.1471 91.4539 32.9785 92.0737 32.9785 92.8713C32.9785 93.5594 33.1403 94.1108 33.4639 94.5256C33.792 94.9357 34.2249 95.1408 34.7627 95.1408C35.3096 95.1408 35.7539 94.9448 36.0957 94.5529C36.4375 94.1564 36.6084 93.6506 36.6084 93.0353ZM50.7109 96.2414H49.125V92.4269C49.125 91.6932 49.0202 91.1623 48.8105 90.8342C48.6055 90.506 48.2568 90.342 47.7646 90.342C47.3499 90.342 46.9967 90.5493 46.7051 90.964C46.418 91.3787 46.2744 91.8755 46.2744 92.4543V96.2414H44.6816V92.297C44.6816 90.9937 44.2214 90.342 43.3008 90.342C42.8724 90.342 42.5192 90.5379 42.2412 90.9299C41.9678 91.3218 41.8311 91.8299 41.8311 92.4543V96.2414H40.2451V89.2414H41.8311V90.3488H41.8584C42.3643 89.5011 43.1003 89.0773 44.0664 89.0773C44.5495 89.0773 44.971 89.2118 45.3311 89.4806C45.6956 89.745 45.944 90.0936 46.0762 90.5265C46.5957 89.5604 47.3704 89.0773 48.4004 89.0773C49.9408 89.0773 50.7109 90.0275 50.7109 91.9279V96.2414ZM58.0186 96.2414H56.4805V95.1476H56.4531C55.9701 95.9862 55.2614 96.4054 54.3271 96.4054C53.639 96.4054 53.099 96.2186 52.707 95.8449C52.3197 95.4712 52.126 94.9767 52.126 94.3615C52.126 93.0399 52.887 92.2697 54.4092 92.0509L56.4873 91.757C56.4873 90.759 56.0133 90.2599 55.0654 90.2599C54.2314 90.2599 53.4795 90.547 52.8096 91.1213V89.7336C53.5479 89.2961 54.4001 89.0773 55.3662 89.0773C57.1344 89.0773 58.0186 89.9478 58.0186 91.6886V96.2414ZM56.4873 92.8029L55.0176 93.008C54.5618 93.0672 54.2178 93.1789 53.9854 93.3429C53.7575 93.5024 53.6436 93.785 53.6436 94.1906C53.6436 94.4868 53.7484 94.7306 53.958 94.922C54.1722 95.1089 54.457 95.2023 54.8125 95.2023C55.2956 95.2023 55.6943 95.0337 56.0088 94.6965C56.3278 94.3547 56.4873 93.9263 56.4873 93.4113V92.8029Z" fill="#E8E8E8"/>
<g clip-path="url(#clip0_2_43)">
<path d="M31.3467 65C35.9467 65 39.68 61.2667 39.68 56.6667V48.3333H31.3467C26.7467 48.3333 23.0133 52.0667 23.0133 56.6667C23.0133 61.2667 26.7467 65 31.3467 65Z" fill="#0ACF83"/>
<path d="M23.0133 40C23.0133 35.4 26.7467 31.6667 31.3467 31.6667H39.68V48.3333H31.3467C26.7467 48.3333 23.0133 44.6 23.0133 40Z" fill="#A259FF"/>
<path d="M23.0133 23.3333C23.0133 18.7333 26.7467 15 31.3467 15H39.68V31.6667H31.3467C26.7467 31.6667 23.0133 27.9333 23.0133 23.3333Z" fill="#F24E1E"/>
<path d="M39.68 15H48.0133C52.6133 15 56.3467 18.7333 56.3467 23.3333C56.3467 27.9333 52.6133 31.6667 48.0133 31.6667H39.68V15Z" fill="#FF7262"/>
<path d="M56.3467 40C56.3467 44.6 52.6133 48.3333 48.0133 48.3333C43.4133 48.3333 39.68 44.6 39.68 40C39.68 35.4 43.4133 31.6667 48.0133 31.6667C52.6133 31.6667 56.3467 35.4 56.3467 40Z" fill="#1ABCFE"/>
</g>
<defs>
<clipPath id="clip0_2_43">
<rect width="33.36" height="50" fill="white" transform="translate(23 15)"/>
</clipPath>
</defs>
</svg>
