<svg width="80" height="105" viewBox="0 0 80 105" fill="none" xmlns="http://www.w3.org/2000/svg">
<path d="M0 5C0 2.23858 2.23858 0 5 0H75C77.7614 0 80 2.23858 80 5V80H0V5Z" fill="#1D1D1F"/>
<path d="M0 80H80V100C80 102.761 77.7614 105 75 105H5C2.23858 105 0 102.761 0 100V80Z" fill="#303133"/>
<path d="M39.1172 95.5715C38.0964 96.1274 36.9593 96.4054 35.7061 96.4054C34.2568 96.4054 33.0833 95.9543 32.1855 95.0519C31.2878 94.1496 30.8389 92.9556 30.8389 91.4699C30.8389 89.9523 31.3288 88.7082 32.3086 87.7375C33.293 86.7622 34.5417 86.2746 36.0547 86.2746C37.1439 86.2746 38.0599 86.4341 38.8027 86.7531V88.4279C38.0508 87.9266 37.1553 87.6759 36.1162 87.6759C35.0726 87.6759 34.2158 88.02 33.5459 88.7082C32.8805 89.3963 32.5479 90.2873 32.5479 91.381C32.5479 92.5067 32.835 93.3931 33.4092 94.0402C33.9834 94.6828 34.7627 95.0041 35.7471 95.0041C36.4215 95.0041 37.0049 94.8742 37.4971 94.6144V92.2834H35.4326V90.9162H39.1172V95.5715ZM41.8516 87.7717C41.5918 87.7717 41.3685 87.6873 41.1816 87.5187C40.9993 87.3501 40.9082 87.1359 40.9082 86.8761C40.9082 86.6164 40.9993 86.3999 41.1816 86.2267C41.3685 86.0536 41.5918 85.967 41.8516 85.967C42.1204 85.967 42.3483 86.0536 42.5352 86.2267C42.722 86.3999 42.8154 86.6164 42.8154 86.8761C42.8154 87.1222 42.722 87.3342 42.5352 87.5119C42.3483 87.6851 42.1204 87.7717 41.8516 87.7717ZM42.6377 96.2414H41.0518V89.2414H42.6377V96.2414ZM48.4072 96.1662C48.0973 96.3211 47.6895 96.3986 47.1836 96.3986C45.8255 96.3986 45.1465 95.7469 45.1465 94.4435V90.4855H43.9775V89.2414H45.1465V87.6213L46.7324 87.1701V89.2414H48.4072V90.4855H46.7324V93.9855C46.7324 94.4002 46.8076 94.6965 46.958 94.8742C47.1084 95.0519 47.359 95.1408 47.71 95.1408C47.9788 95.1408 48.2113 95.0633 48.4072 94.9084V96.1662Z" fill="#E8E8E8"/>
<path d="M63.7273 37.8039L42.1973 16.275C40.9582 15.0352 38.9473 15.0352 37.7063 16.275L33.2363 20.7461L38.9074 26.4172C40.2258 25.9723 41.7367 26.2707 42.7871 27.3211C43.843 28.3781 44.1395 29.902 43.6828 31.2246L49.1484 36.691C50.4707 36.2352 51.9969 36.5297 53.0523 37.5875C54.5289 39.0629 54.5289 41.4547 53.0523 42.9309C51.5758 44.4074 49.1848 44.4074 47.7074 42.9309C46.5973 41.8199 46.3227 40.1891 46.8852 38.8211L41.7883 33.7238L41.7875 47.1383C42.1477 47.316 42.4871 47.5535 42.7871 47.8523C44.2633 49.3277 44.2633 51.7188 42.7871 53.1973C41.3109 54.6727 38.9184 54.6727 37.4438 53.1973C35.968 51.7191 35.8469 49.3281 37.3223 47.8523C37.6871 47.4879 38.0469 47.2125 38.4375 47.0281V33.4895C38.0469 33.3051 37.6875 33.0316 37.3219 32.6648C36.2043 31.5477 35.9953 29.907 36.5688 28.5336L31.009 22.9426L16.2613 37.7043C15.0211 38.9453 15.0289 40.9562 16.2691 42.1965L37.8027 63.7254C39.0422 64.9652 41.0547 64.9652 42.2961 63.7254L63.7258 42.2965C64.966 41.0559 64.9672 39.0437 63.7273 37.8039V37.8039Z" fill="#F34F29"/>
</svg>
