<svg width="80" height="105" viewBox="0 0 80 105" fill="none" xmlns="http://www.w3.org/2000/svg">
<path d="M0 5C0 2.23858 2.23858 0 5 0H75C77.7614 0 80 2.23858 80 5V80H0V5Z" fill="#1D1D1F"/>
<path d="M0 80H80V100C80 102.761 77.7614 105 75 105H5C2.23858 105 0 102.761 0 100V80Z" fill="#303133"/>
<path d="M11.7041 92.7277C11.7041 93.8898 11.417 94.7944 10.8428 95.4416C10.2686 96.0842 9.50293 96.4054 8.5459 96.4054C8.09928 96.4054 7.73242 96.353 7.44531 96.2482V94.717C7.70508 94.8947 8.04004 94.9836 8.4502 94.9836C9.53483 94.9836 10.0771 94.145 10.0771 92.4679V86.4386H11.7041V92.7277ZM19.0664 96.2414H17.5283V95.1476H17.501C17.0179 95.9862 16.3092 96.4054 15.375 96.4054C14.6868 96.4054 14.1468 96.2186 13.7549 95.8449C13.3675 95.4712 13.1738 94.9767 13.1738 94.3615C13.1738 93.0399 13.9349 92.2697 15.457 92.0509L17.5352 91.757C17.5352 90.759 17.0612 90.2599 16.1133 90.2599C15.2793 90.2599 14.5273 90.547 13.8574 91.1213V89.7336C14.5957 89.2961 15.4479 89.0773 16.4141 89.0773C18.1823 89.0773 19.0664 89.9478 19.0664 91.6886V96.2414ZM17.5352 92.8029L16.0654 93.008C15.6097 93.0672 15.2656 93.1789 15.0332 93.3429C14.8053 93.5024 14.6914 93.785 14.6914 94.1906C14.6914 94.4868 14.7962 94.7306 15.0059 94.922C15.2201 95.1089 15.5049 95.2023 15.8604 95.2023C16.3434 95.2023 16.7422 95.0337 17.0566 94.6965C17.3757 94.3547 17.5352 93.9263 17.5352 93.4113V92.8029ZM27.0371 89.2414L24.3301 96.2414H22.6143L20.0371 89.2414H21.7598L23.3115 94.1359C23.43 94.4959 23.5029 94.8104 23.5303 95.0793H23.5508C23.5918 94.742 23.6556 94.4367 23.7422 94.1633L25.3691 89.2414H27.0371ZM33.2578 96.2414H31.7197V95.1476H31.6924C31.2093 95.9862 30.5007 96.4054 29.5664 96.4054C28.8783 96.4054 28.3382 96.2186 27.9463 95.8449C27.5589 95.4712 27.3652 94.9767 27.3652 94.3615C27.3652 93.0399 28.1263 92.2697 29.6484 92.0509L31.7266 91.757C31.7266 90.759 31.2526 90.2599 30.3047 90.2599C29.4707 90.2599 28.7188 90.547 28.0488 91.1213V89.7336C28.7871 89.2961 29.6393 89.0773 30.6055 89.0773C32.3737 89.0773 33.2578 89.9478 33.2578 91.6886V96.2414ZM31.7266 92.8029L30.2568 93.008C29.8011 93.0672 29.457 93.1789 29.2246 93.3429C28.9967 93.5024 28.8828 93.785 28.8828 94.1906C28.8828 94.4868 28.9876 94.7306 29.1973 94.922C29.4115 95.1089 29.6963 95.2023 30.0518 95.2023C30.5348 95.2023 30.9336 95.0337 31.248 94.6965C31.5671 94.3547 31.7266 93.9263 31.7266 93.4113V92.8029ZM34.9258 95.8517V94.1769C35.0762 94.3136 35.2539 94.4367 35.459 94.5461C35.6686 94.6554 35.8896 94.7489 36.1221 94.8263C36.3545 94.8993 36.5869 94.9562 36.8193 94.9972C37.0518 95.0383 37.266 95.0588 37.4619 95.0588C38.1455 95.0588 38.6536 94.9448 38.9863 94.717C39.3236 94.4891 39.4922 94.1587 39.4922 93.7258C39.4922 93.4933 39.4352 93.2928 39.3213 93.1242C39.2119 92.951 39.057 92.7938 38.8564 92.6525C38.6559 92.5112 38.4189 92.3768 38.1455 92.2492C37.8766 92.117 37.5872 91.9803 37.2773 91.839C36.9447 91.6613 36.6348 91.4813 36.3477 91.299C36.0605 91.1167 35.8099 90.9162 35.5957 90.6974C35.3861 90.4741 35.2197 90.2235 35.0967 89.9455C34.9782 89.6675 34.9189 89.3416 34.9189 88.9679C34.9189 88.5077 35.0215 88.1089 35.2266 87.7717C35.4362 87.4299 35.7096 87.1496 36.0469 86.9308C36.3887 86.7075 36.776 86.5435 37.209 86.4386C37.6419 86.3293 38.084 86.2746 38.5352 86.2746C39.5605 86.2746 40.3079 86.3908 40.7773 86.6232V88.2297C40.2214 87.8286 39.5059 87.6281 38.6309 87.6281C38.3893 87.6281 38.1478 87.6509 37.9062 87.6965C37.6693 87.742 37.4551 87.8172 37.2637 87.922C37.0768 88.0269 36.9242 88.1613 36.8057 88.3254C36.6872 88.4894 36.6279 88.6877 36.6279 88.9201C36.6279 89.1388 36.6735 89.328 36.7646 89.4875C36.8558 89.647 36.988 89.7928 37.1611 89.925C37.3389 90.0571 37.5531 90.187 37.8037 90.3146C38.0589 90.4377 38.3529 90.5721 38.6855 90.7179C39.0273 90.8957 39.3486 91.0825 39.6494 91.2785C39.9548 91.4745 40.2214 91.6909 40.4492 91.9279C40.6816 92.1649 40.8639 92.4292 40.9961 92.7209C41.1328 93.008 41.2012 93.3361 41.2012 93.7052C41.2012 94.202 41.1009 94.6213 40.9004 94.9631C40.6999 95.3049 40.4287 95.5829 40.0869 95.797C39.7497 96.0112 39.36 96.1662 38.918 96.2619C38.4759 96.3576 38.0088 96.4054 37.5166 96.4054C37.3525 96.4054 37.1497 96.3918 36.9082 96.3644C36.6712 96.3416 36.4274 96.3052 36.1768 96.2551C35.9261 96.2095 35.6891 96.1525 35.4658 96.0842C35.2425 96.0158 35.0625 95.9383 34.9258 95.8517ZM47.8389 95.9201C47.2783 96.2437 46.6152 96.4054 45.8496 96.4054C44.8105 96.4054 43.972 96.0819 43.334 95.4347C42.696 94.783 42.377 93.9399 42.377 92.9054C42.377 91.7524 42.7188 90.8273 43.4023 90.1301C44.0905 89.4282 45.0088 89.0773 46.1572 89.0773C46.7952 89.0773 47.3581 89.189 47.8457 89.4123V90.8888C47.3581 90.5243 46.8385 90.342 46.2871 90.342C45.6172 90.342 45.068 90.5698 44.6396 91.0256C44.2113 91.4767 43.9971 92.0692 43.9971 92.8029C43.9971 93.5275 44.1976 94.0995 44.5986 94.5187C45.0042 94.938 45.5465 95.1476 46.2256 95.1476C46.7952 95.1476 47.333 94.9448 47.8389 94.5392V95.9201ZM53.4785 90.7521C53.2871 90.6017 53.0114 90.5265 52.6514 90.5265C52.182 90.5265 51.79 90.7384 51.4756 91.1623C51.1611 91.5861 51.0039 92.1626 51.0039 92.8918V96.2414H49.418V89.2414H51.0039V90.6838H51.0312C51.1862 90.1916 51.4232 89.8088 51.7422 89.5353C52.0658 89.2573 52.4258 89.1183 52.8223 89.1183C53.1094 89.1183 53.3281 89.1616 53.4785 89.2482V90.7521ZM55.3994 87.7717C55.1396 87.7717 54.9163 87.6873 54.7295 87.5187C54.5472 87.3501 54.4561 87.1359 54.4561 86.8761C54.4561 86.6164 54.5472 86.3999 54.7295 86.2267C54.9163 86.0536 55.1396 85.967 55.3994 85.967C55.6683 85.967 55.8962 86.0536 56.083 86.2267C56.2699 86.3999 56.3633 86.6164 56.3633 86.8761C56.3633 87.1222 56.2699 87.3342 56.083 87.5119C55.8962 87.6851 55.6683 87.7717 55.3994 87.7717ZM56.1855 96.2414H54.5996V89.2414H56.1855V96.2414ZM59.877 95.2092H59.8496V99.4611H58.2637V89.2414H59.8496V90.4718H59.877C60.4193 89.5422 61.2122 89.0773 62.2559 89.0773C63.1445 89.0773 63.8372 89.3895 64.334 90.0138C64.8307 90.6382 65.0791 91.4767 65.0791 92.5295C65.0791 93.6961 64.7988 94.6304 64.2383 95.3322C63.6777 96.034 62.9121 96.3849 61.9414 96.3849C61.0482 96.3849 60.36 95.993 59.877 95.2092ZM59.8359 92.4474V93.3156C59.8359 93.826 59.9977 94.259 60.3213 94.6144C60.6494 94.9699 61.0641 95.1476 61.5654 95.1476C62.1533 95.1476 62.6136 94.9198 62.9463 94.464C63.2835 94.0037 63.4521 93.3634 63.4521 92.5431C63.4521 91.855 63.2949 91.3172 62.9805 90.9299C62.6706 90.5379 62.249 90.342 61.7158 90.342C61.1507 90.342 60.695 90.5425 60.3486 90.9435C60.0068 91.3446 59.8359 91.8459 59.8359 92.4474ZM70.3906 96.1662C70.0807 96.3211 69.6729 96.3986 69.167 96.3986C67.8089 96.3986 67.1299 95.7469 67.1299 94.4435V90.4855H65.9609V89.2414H67.1299V87.6213L68.7158 87.1701V89.2414H70.3906V90.4855H68.7158V93.9855C68.7158 94.4002 68.791 94.6965 68.9414 94.8742C69.0918 95.0519 69.3424 95.1408 69.6934 95.1408C69.9622 95.1408 70.1947 95.0633 70.3906 94.9084V96.1662Z" fill="#E8E8E8"/>
<path d="M65 15H15V65H65V15Z" fill="#F5DE19"/>
<path d="M48.5875 54.0625C49.0135 54.9279 49.6754 55.6552 50.4968 56.1607C51.3183 56.6662 52.2659 56.9293 53.2303 56.9196C55.1768 56.9196 56.4214 55.9464 56.4214 54.5982C56.4214 52.9911 55.1428 52.4161 53 51.4786L51.825 50.975C48.4321 49.5304 46.1821 47.7214 46.1821 43.8964C46.1821 40.3732 48.8607 37.6893 53.0625 37.6893C54.4227 37.5911 55.7817 37.8955 56.97 38.5646C58.1583 39.2337 59.1233 40.2378 59.7446 41.4518L56.0714 43.8C55.8322 43.1981 55.4156 42.6831 54.8769 42.3234C54.3383 41.9636 53.703 41.7761 53.0553 41.7857C52.7728 41.7574 52.4874 41.7883 52.2174 41.8764C51.9475 41.9645 51.6988 42.1079 51.4873 42.2974C51.2758 42.4869 51.1061 42.7183 50.989 42.9771C50.8719 43.2358 50.8099 43.516 50.8071 43.8C50.8071 45.2089 51.6803 45.7804 53.6964 46.6571L54.8714 47.1607C58.8643 48.8732 61.1214 50.6179 61.1214 54.5411C61.1214 58.7714 57.7982 61.0893 53.3357 61.0893C51.597 61.2001 49.8633 60.8053 48.3439 59.9526C46.8246 59.1 45.5845 57.8258 44.7732 56.2839L48.5875 54.0625ZM31.9893 54.4696C32.7268 55.7786 33.3982 56.8857 35.0125 56.8857C36.5553 56.8857 37.5303 56.2821 37.5303 53.9339V37.9571H42.2286V53.9964C42.2286 58.8607 39.3714 61.075 35.2125 61.075C33.7424 61.1554 32.2824 60.789 31.0244 60.0241C29.7665 59.2592 28.7694 58.1315 28.1643 56.7893L31.9893 54.4696Z" fill="black"/>
</svg>
