<svg width="80" height="105" viewBox="0 0 80 105" fill="none" xmlns="http://www.w3.org/2000/svg">
<path d="M0 5C0 2.23858 2.23858 0 5 0H75C77.7614 0 80 2.23858 80 5V80H0V5Z" fill="#1D1D1F"/>
<path d="M0 80H80V100C80 102.761 77.7614 105 75 105H5C2.23858 105 0 102.761 0 100V80Z" fill="#303133"/>
<path d="M7.30859 92.6867V96.2414H5.68848V86.4386H8.66211C9.78776 86.4386 10.6605 86.7007 11.2803 87.2248C11.9001 87.7489 12.21 88.4871 12.21 89.4396C12.21 90.3921 11.8864 91.1714 11.2393 91.7775C10.5921 92.3836 9.71712 92.6867 8.61426 92.6867H7.30859ZM7.30859 87.7785V91.3605H8.36133C9.05859 91.3605 9.58952 91.1987 9.9541 90.8752C10.3187 90.5516 10.501 90.0959 10.501 89.508C10.501 88.355 9.83105 87.7785 8.49121 87.7785H7.30859ZM19.9209 96.2414H18.335V92.4133C18.335 91.0278 17.8724 90.3351 16.9473 90.3351C16.4824 90.3351 16.0905 90.5356 15.7715 90.9367C15.4525 91.3377 15.293 91.8504 15.293 92.4748V96.2414H13.7002V85.8781H15.293V90.4035H15.3203C15.849 89.5194 16.6055 89.0773 17.5898 89.0773C19.1439 89.0773 19.9209 90.0275 19.9209 91.9279V96.2414ZM24.9521 96.4054C23.8721 96.4054 23.0085 96.0796 22.3613 95.4279C21.7188 94.7717 21.3975 93.9035 21.3975 92.8234C21.3975 91.6476 21.7324 90.7293 22.4023 90.0685C23.0768 89.4077 23.9837 89.0773 25.123 89.0773C26.2168 89.0773 27.069 89.3986 27.6797 90.0412C28.2904 90.6838 28.5957 91.5747 28.5957 92.714C28.5957 93.8306 28.2653 94.7261 27.6045 95.4006C26.9482 96.0705 26.0641 96.4054 24.9521 96.4054ZM25.0273 90.342C24.4076 90.342 23.9176 90.5584 23.5576 90.9914C23.1976 91.4243 23.0176 92.0213 23.0176 92.7824C23.0176 93.5161 23.1999 94.0949 23.5645 94.5187C23.929 94.938 24.4167 95.1476 25.0273 95.1476C25.6517 95.1476 26.1302 94.9403 26.4629 94.5256C26.8001 94.1108 26.9688 93.5207 26.9688 92.7551C26.9688 91.9849 26.8001 91.3901 26.4629 90.9709C26.1302 90.5516 25.6517 90.342 25.0273 90.342ZM33.9072 96.1662C33.5973 96.3211 33.1895 96.3986 32.6836 96.3986C31.3255 96.3986 30.6465 95.7469 30.6465 94.4435V90.4855H29.4775V89.2414H30.6465V87.6213L32.2324 87.1701V89.2414H33.9072V90.4855H32.2324V93.9855C32.2324 94.4002 32.3076 94.6965 32.458 94.8742C32.6084 95.0519 32.859 95.1408 33.21 95.1408C33.4788 95.1408 33.7113 95.0633 33.9072 94.9084V96.1662ZM38.2959 96.4054C37.2158 96.4054 36.3522 96.0796 35.7051 95.4279C35.0625 94.7717 34.7412 93.9035 34.7412 92.8234C34.7412 91.6476 35.0762 90.7293 35.7461 90.0685C36.4206 89.4077 37.3275 89.0773 38.4668 89.0773C39.5605 89.0773 40.4128 89.3986 41.0234 90.0412C41.6341 90.6838 41.9395 91.5747 41.9395 92.714C41.9395 93.8306 41.609 94.7261 40.9482 95.4006C40.292 96.0705 39.4079 96.4054 38.2959 96.4054ZM38.3711 90.342C37.7513 90.342 37.2614 90.5584 36.9014 90.9914C36.5413 91.4243 36.3613 92.0213 36.3613 92.7824C36.3613 93.5161 36.5436 94.0949 36.9082 94.5187C37.2728 94.938 37.7604 95.1476 38.3711 95.1476C38.9954 95.1476 39.474 94.9403 39.8066 94.5256C40.1439 94.1108 40.3125 93.5207 40.3125 92.7551C40.3125 91.9849 40.1439 91.3901 39.8066 90.9709C39.474 90.5516 38.9954 90.342 38.3711 90.342ZM43.1221 96.0226V94.5529C43.7145 95.0041 44.3685 95.2297 45.084 95.2297C46.041 95.2297 46.5195 94.9471 46.5195 94.382C46.5195 94.2225 46.4785 94.0881 46.3965 93.9787C46.3145 93.8648 46.2028 93.7645 46.0615 93.6779C45.9248 93.5913 45.7607 93.5138 45.5693 93.4455C45.3825 93.3771 45.1729 93.2996 44.9404 93.2131C44.6533 93.0991 44.3936 92.9784 44.1611 92.8508C43.9333 92.7231 43.7419 92.5796 43.5869 92.4201C43.4365 92.256 43.3226 92.0715 43.2451 91.8664C43.1676 91.6613 43.1289 91.422 43.1289 91.1486C43.1289 90.8114 43.2087 90.5151 43.3682 90.2599C43.5277 90.0002 43.7419 89.7837 44.0107 89.6105C44.2796 89.4328 44.585 89.3006 44.9268 89.214C45.2686 89.1229 45.6217 89.0773 45.9863 89.0773C46.6335 89.0773 47.2122 89.1753 47.7227 89.3713V90.759C47.2305 90.4217 46.6654 90.2531 46.0273 90.2531C45.8268 90.2531 45.6445 90.2736 45.4805 90.3146C45.321 90.3556 45.1842 90.4126 45.0703 90.4855C44.9564 90.5584 44.8675 90.6473 44.8037 90.7521C44.7399 90.8524 44.708 90.964 44.708 91.0871C44.708 91.2375 44.7399 91.3651 44.8037 91.4699C44.8675 91.5747 44.9609 91.6681 45.084 91.7502C45.2116 91.8276 45.362 91.9006 45.5352 91.9689C45.7129 92.0327 45.9157 92.1034 46.1436 92.1808C46.4443 92.3039 46.7132 92.4292 46.9502 92.5568C47.1917 92.6844 47.3968 92.8302 47.5654 92.9943C47.734 93.1538 47.8639 93.3407 47.9551 93.5549C48.0462 93.7645 48.0918 94.0151 48.0918 94.3068C48.0918 94.6623 48.0098 94.9722 47.8457 95.2365C47.6816 95.5008 47.4629 95.7196 47.1895 95.8927C46.916 96.0659 46.5993 96.1935 46.2393 96.2756C45.8838 96.3621 45.5078 96.4054 45.1113 96.4054C44.3457 96.4054 43.6826 96.2778 43.1221 96.0226ZM55.8232 96.2414H54.2373V92.4133C54.2373 91.0278 53.7747 90.3351 52.8496 90.3351C52.3848 90.3351 51.9928 90.5356 51.6738 90.9367C51.3548 91.3377 51.1953 91.8504 51.1953 92.4748V96.2414H49.6025V85.8781H51.1953V90.4035H51.2227C51.7513 89.5194 52.5078 89.0773 53.4922 89.0773C55.0462 89.0773 55.8232 90.0275 55.8232 91.9279V96.2414ZM60.8545 96.4054C59.7744 96.4054 58.9108 96.0796 58.2637 95.4279C57.6211 94.7717 57.2998 93.9035 57.2998 92.8234C57.2998 91.6476 57.6348 90.7293 58.3047 90.0685C58.9792 89.4077 59.8861 89.0773 61.0254 89.0773C62.1191 89.0773 62.9714 89.3986 63.582 90.0412C64.1927 90.6838 64.498 91.5747 64.498 92.714C64.498 93.8306 64.1676 94.7261 63.5068 95.4006C62.8506 96.0705 61.9665 96.4054 60.8545 96.4054ZM60.9297 90.342C60.3099 90.342 59.82 90.5584 59.46 90.9914C59.0999 91.4243 58.9199 92.0213 58.9199 92.7824C58.9199 93.5161 59.1022 94.0949 59.4668 94.5187C59.8314 94.938 60.319 95.1476 60.9297 95.1476C61.554 95.1476 62.0326 94.9403 62.3652 94.5256C62.7025 94.1108 62.8711 93.5207 62.8711 92.7551C62.8711 91.9849 62.7025 91.3901 62.3652 90.9709C62.0326 90.5516 61.554 90.342 60.9297 90.342ZM67.7314 95.2092H67.7041V99.4611H66.1182V89.2414H67.7041V90.4718H67.7314C68.2738 89.5422 69.0667 89.0773 70.1104 89.0773C70.999 89.0773 71.6917 89.3895 72.1885 90.0138C72.6852 90.6382 72.9336 91.4767 72.9336 92.5295C72.9336 93.6961 72.6533 94.6304 72.0928 95.3322C71.5322 96.034 70.7666 96.3849 69.7959 96.3849C68.9027 96.3849 68.2145 95.993 67.7314 95.2092ZM67.6904 92.4474V93.3156C67.6904 93.826 67.8522 94.259 68.1758 94.6144C68.5039 94.9699 68.9186 95.1476 69.4199 95.1476C70.0078 95.1476 70.4681 94.9198 70.8008 94.464C71.138 94.0037 71.3066 93.3634 71.3066 92.5431C71.3066 91.855 71.1494 91.3172 70.835 90.9299C70.5251 90.5379 70.1035 90.342 69.5703 90.342C69.0052 90.342 68.5495 90.5425 68.2031 90.9435C67.8613 91.3446 67.6904 91.8459 67.6904 92.4474Z" fill="#E8E8E8"/>
<path d="M17.0839 17.7089H62.9161V62.2911H17.0839V17.7089Z" fill="#0C0824"/>
<path d="M17.0839 17.7089H62.9161V62.2911H17.0839V17.7089ZM15 64.375H65V15.625H15V64.375ZM48.7089 35.625C47.0625 35.625 46.5 36.4589 46.5 37.1464C46.5 37.8964 46.875 38.4179 49.0839 39.5625C52.3554 41.1464 53.3696 42.6661 53.3696 44.8964C53.3696 48.2304 50.8286 50.0214 47.3911 50.0214C45.9158 50.0761 44.4495 49.7696 43.1196 49.1286C42.9732 49.0661 42.9536 48.9625 42.9536 48.7946V45.7286C42.9536 45.5196 43.0571 45.4571 43.2036 45.5625C44.4525 46.3656 45.9062 46.7921 47.3911 46.7911C49.0375 46.7911 49.725 46.1036 49.725 45.1661C49.725 44.4161 49.2464 43.75 47.1411 42.6661C44.1821 41.25 42.9536 39.8089 42.9536 37.4161C42.9536 34.7286 45.0571 32.5 48.7036 32.5C49.9729 32.4455 51.2403 32.644 52.4321 33.0839C52.5008 33.1285 52.5563 33.1905 52.593 33.2636C52.6298 33.3368 52.6463 33.4183 52.6411 33.5V36.3571C52.6411 36.5232 52.5375 36.6286 52.3286 36.5661C51.2271 35.932 49.9744 35.608 48.7036 35.6286L48.7089 35.625ZM30.7911 38.1036C31.2696 38.1446 31.6446 38.1446 32.4786 38.1446C34.9161 38.1446 37.2071 37.2911 37.2071 33.9786C37.2071 31.3321 35.5607 30 32.7911 30C31.9571 30 31.1661 30.0411 30.7911 30.0625V38.1036ZM27.0821 27.0321C27.0821 26.8857 27.3732 26.7821 27.5411 26.7821C28.875 26.7196 30.8536 26.6786 32.9161 26.6786C38.6875 26.6786 40.9375 29.8446 40.9375 33.8875C40.9375 39.1786 37.1036 41.45 32.3964 41.45C31.6054 41.45 31.3339 41.4089 30.7714 41.4089V49.4089C30.7714 49.575 30.7089 49.6589 30.5214 49.6589H27.3339C27.1679 49.6589 27.0839 49.5964 27.0839 49.4089V27.0411L27.0821 27.0321Z" fill="#31C5F0"/>
</svg>
