<svg width="80" height="105" viewBox="0 0 80 105" fill="none" xmlns="http://www.w3.org/2000/svg">
<path d="M0 5C0 2.23858 2.23858 0 5 0H75C77.7614 0 80 2.23858 80 5V80H0V5Z" fill="#1D1D1F"/>
<path d="M0 80H80V100C80 102.761 77.7614 105 75 105H5C2.23858 105 0 102.761 0 100V80Z" fill="#303133"/>
<path d="M37.373 86.4386L34.6865 96.2414H32.8477L30.9814 89.3849C30.904 89.0933 30.8561 88.7743 30.8379 88.4279H30.8105C30.7878 88.7515 30.7331 89.0659 30.6465 89.3713L28.7734 96.2414H26.8936L24.1523 86.4386H25.9365L27.7139 93.6164C27.7868 93.9172 27.8324 94.2316 27.8506 94.5597H27.8848C27.903 94.3273 27.9668 94.0129 28.0762 93.6164L30.0859 86.4386H31.7607L33.6201 93.6711C33.6839 93.9172 33.7318 94.2088 33.7637 94.5461H33.791C33.8047 94.3182 33.8571 94.0174 33.9482 93.6437L35.6914 86.4386H37.373ZM38.3643 95.8791V94.3888C39.0023 94.8947 39.7223 95.1476 40.5244 95.1476C41.1761 95.1476 41.6956 94.9995 42.083 94.7033C42.4749 94.4071 42.6709 94.006 42.6709 93.5002C42.6709 92.3882 41.821 91.8322 40.1211 91.8322H39.3623V90.5607H40.0869C41.5954 90.5607 42.3496 90.0366 42.3496 88.9884C42.3496 88.0223 41.7617 87.5392 40.5859 87.5392C39.9297 87.5392 39.3122 87.7739 38.7334 88.2433V86.8351C39.3988 86.4614 40.1849 86.2746 41.0918 86.2746C41.9622 86.2746 42.6595 86.4933 43.1836 86.9308C43.7077 87.3683 43.9697 87.9289 43.9697 88.6125C43.9697 89.9022 43.3135 90.7316 42.001 91.1008V91.1281C42.7074 91.1965 43.2656 91.4448 43.6758 91.8732C44.0859 92.297 44.291 92.828 44.291 93.466C44.291 94.3455 43.9606 95.0565 43.2998 95.5988C42.639 96.1366 41.7686 96.4054 40.6885 96.4054C39.7178 96.4054 38.943 96.23 38.3643 95.8791ZM53.3486 95.8312C52.6104 96.214 51.6921 96.4054 50.5938 96.4054C49.1719 96.4054 48.0326 95.9565 47.1758 95.0588C46.319 94.161 45.8906 92.9829 45.8906 91.5246C45.8906 89.9569 46.3714 88.6899 47.333 87.7238C48.2992 86.7577 49.5182 86.2746 50.9902 86.2746C51.9382 86.2746 52.7243 86.409 53.3486 86.6779V88.2912C52.6878 87.8993 51.9587 87.7033 51.1611 87.7033C50.0993 87.7033 49.238 88.0428 48.5771 88.7218C47.9209 89.4009 47.5928 90.3078 47.5928 91.4426C47.5928 92.5226 47.9004 93.384 48.5156 94.0265C49.1309 94.6646 49.9398 94.9836 50.9424 94.9836C51.8675 94.9836 52.6696 94.7648 53.3486 94.3273V95.8312Z" fill="#E8E8E8"/>
<path fill-rule="evenodd" clip-rule="evenodd" d="M65 64.4682V15.532V15H64.4682H15.532H15V15.532V64.4682V65H15.532H64.4682H65V64.4682Z" fill="#00599D"/>
<path fill-rule="evenodd" clip-rule="evenodd" d="M31.2374 52.7071L35.3786 38.8493L39.52 52.7071L39.6339 53.0873H40.0292H40.3388H40.7347L40.8479 52.7051L47.2022 31.2605L47.31 31.0773H51.3274L47.4491 37.7819L47.3762 38.0478V39.5351V40.0649H47.9083H49.1481V40.0671C49.8737 40.0671 50.4954 40.1749 51.012 40.3901C51.5086 40.597 51.9143 40.9054 52.228 41.3147L52.2301 41.3171C52.5086 41.6765 52.7188 42.1134 52.8602 42.6278C53.0067 43.1608 53.0801 43.7833 53.0801 44.4952C53.0801 45.1393 53.0114 45.7288 52.8744 46.2637C52.7383 46.7944 52.5344 47.2798 52.2625 47.72C52.0041 48.1383 51.7233 48.4479 51.42 48.6489C51.1428 48.8321 50.8399 48.9239 50.5114 48.9239C50.1622 48.9239 49.8391 48.8669 49.5416 48.7534C49.2444 48.6397 48.968 48.468 48.7126 48.2387H48.7106C48.4434 47.9993 48.1989 47.71 47.9766 47.3712C47.7504 47.026 47.5514 46.6337 47.3788 46.194L47.1809 45.6893L46.6805 45.8969L44.1393 46.951L43.6839 47.1397L43.838 47.6077C44.1087 48.4297 44.4563 49.1727 44.8805 49.8368C45.3077 50.5053 45.8092 51.0862 46.385 51.5792C46.9712 52.0797 47.6096 52.4563 48.3006 52.7086C48.9915 52.9608 49.7286 53.0873 50.5114 53.0873C51.5532 53.0873 52.5034 52.875 53.3619 52.45C54.2166 52.0276 54.9717 51.3965 55.6272 50.5577H55.6291C56.2717 49.7319 56.7539 48.8106 57.075 47.7932C57.3938 46.7852 57.5531 45.6858 57.5531 44.495C57.5531 43.5345 57.4436 42.63 57.2244 41.7809C57.0049 40.9315 56.6748 40.1436 56.2336 39.4165C55.7852 38.6767 55.2305 38.0519 54.5696 37.5421C54.0719 37.1581 53.5153 36.84 52.9 36.588L57.1695 29.2292L57.2424 28.9632V27.4447V26.9126H56.7104H47.7797H44.6216H44.526H44.1296L44.0173 27.2953L40.0296 40.8487L35.9071 26.8992L32.2788 26.9132H31.5661L31.77 27.5966L33.2132 32.439L30.7294 40.8518L26.7429 27.2953L26.6306 26.9126H26.2341H22.9787H22.2677L22.4695 27.5945L29.9093 52.7051L30.0226 53.0873H30.4185H30.7284H31.1239L31.2374 52.7071Z" fill="#FFFFFE"/>
</svg>
